<svg width="50" height="50" viewBox="0 0 50 50" fill="none" xmlns="http://www.w3.org/2000/svg">
<path d="M23.75 6.25V8.75C23.75 9.08152 23.8817 9.39946 24.1161 9.63388C24.3505 9.8683 24.6685 10 25 10C25.3315 10 25.6495 9.8683 25.8839 9.63388C26.1183 9.39946 26.25 9.08152 26.25 8.75V6.25C26.25 5.91848 26.1183 5.60054 25.8839 5.36612C25.6495 5.1317 25.3315 5 25 5C24.6685 5 24.3505 5.1317 24.1161 5.36612C23.8817 5.60054 23.75 5.91848 23.75 6.25ZM25 12.5C23.0109 12.5 21.1032 13.2902 19.6967 14.6967C18.2902 16.1032 17.5 18.0109 17.5 20C17.5 21.9891 18.2902 23.8968 19.6967 25.3033C21.1032 26.7098 23.0109 27.5 25 27.5C26.9891 27.5 28.8968 26.7098 30.3033 25.3033C31.7098 23.8968 32.5 21.9891 32.5 20C32.5 18.0109 31.7098 16.1032 30.3033 14.6967C28.8968 13.2902 26.9891 12.5 25 12.5ZM20 20C20 18.6739 20.5268 17.4021 21.4645 16.4645C22.4021 15.5268 23.6739 15 25 15C26.3261 15 27.5978 15.5268 28.5355 16.4645C29.4732 17.4021 30 18.6739 30 20C30 21.3261 29.4732 22.5978 28.5355 23.5355C27.5978 24.4732 26.3261 25 25 25C23.6739 25 22.4021 24.4732 21.4645 23.5355C20.5268 22.5978 20 21.3261 20 20ZM15.335 41.1425C18.497 40.3636 21.7435 39.9798 25 40C29.1725 40 32.6125 40.5725 35.325 41.3175C37.925 42.03 39.8625 42.9025 41.135 43.5875C41.7392 43.9107 42.3235 44.2697 42.885 44.6625L42.96 44.7175L42.97 44.7275C43.2292 44.9344 43.56 45.0298 43.8896 44.9927C44.2192 44.9557 44.5206 44.7892 44.7275 44.53C44.9344 44.2707 45.0298 43.9399 44.9927 43.6103C44.9557 43.2808 44.7892 42.9794 44.53 42.7725L44.525 42.7675L44.5125 42.76L44.48 42.735L44.3625 42.6475C43.707 42.1856 43.0241 41.764 42.3175 41.385C40.3068 40.3244 38.1835 39.4926 35.9875 38.905C33.0675 38.105 29.4025 37.5 25 37.5C20.9475 37.5 17.52 38.0125 14.7225 38.72C12.3428 39.303 10.0402 40.1648 7.86249 41.2875C7.26059 41.6021 6.67485 41.9467 6.10749 42.32C5.90934 42.4509 5.71509 42.5876 5.52499 42.73L5.48749 42.76L5.47749 42.7675L5.47249 42.7725C5.21324 42.9794 5.04429 43.2808 5.00725 43.6103C4.97021 43.9399 5.06562 44.2707 5.27249 44.53C5.47936 44.7892 5.78074 44.9557 6.11033 44.9927C6.43993 45.0298 6.77074 44.9344 7.02999 44.7275L7.04499 44.715L7.12499 44.655C7.73361 44.2307 8.36819 43.845 9.02499 43.5C11.0282 42.4685 13.1462 41.6772 15.335 41.1425ZM23.75 33.75V31.25C23.75 30.9185 23.8817 30.6005 24.1161 30.3661C24.3505 30.1317 24.6685 30 25 30C25.3315 30 25.6495 30.1317 25.8839 30.3661C26.1183 30.6005 26.25 30.9185 26.25 31.25V33.75C26.25 34.0815 26.1183 34.3995 25.8839 34.6339C25.6495 34.8683 25.3315 35 25 35C24.6685 35 24.3505 34.8683 24.1161 34.6339C23.8817 34.3995 23.75 34.0815 23.75 33.75ZM9.99999 21.25C9.99999 20.9185 10.1317 20.6005 10.3661 20.3661C10.6005 20.1317 10.9185 20 11.25 20H13.75C14.0815 20 14.3994 20.1317 14.6339 20.3661C14.8683 20.6005 15 20.9185 15 21.25C15 21.5815 14.8683 21.8995 14.6339 22.1339C14.3994 22.3683 14.0815 22.5 13.75 22.5H11.25C10.9185 22.5 10.6005 22.3683 10.3661 22.1339C10.1317 21.8995 9.99999 21.5815 9.99999 21.25ZM36.25 22.5H38.75C39.0815 22.5 39.3995 22.3683 39.6339 22.1339C39.8683 21.8995 40 21.5815 40 21.25C40 20.9185 39.8683 20.6005 39.6339 20.3661C39.3995 20.1317 39.0815 20 38.75 20H36.25C35.9185 20 35.6005 20.1317 35.3661 20.3661C35.1317 20.6005 35 20.9185 35 21.25C35 21.5815 35.1317 21.8995 35.3661 22.1339C35.6005 22.3683 35.9185 22.5 36.25 22.5ZM17.135 14.635C17.0189 14.7514 16.8809 14.8438 16.7291 14.9068C16.5772 14.9698 16.4144 15.0022 16.25 15.0022C16.0856 15.0022 15.9228 14.9698 15.7709 14.9068C15.619 14.8438 15.4811 14.7514 15.365 14.635L12.865 12.135C12.7489 12.0188 12.6569 11.8808 12.5942 11.7291C12.5314 11.5773 12.4992 11.4146 12.4993 11.2504C12.4994 11.0861 12.5319 10.9235 12.5948 10.7718C12.6578 10.6201 12.75 10.4823 12.8662 10.3662C12.9825 10.2502 13.1204 10.1582 13.2722 10.0954C13.424 10.0327 13.5866 10.0004 13.7509 10.0006C13.9151 10.0007 14.0777 10.0331 14.2294 10.0961C14.3811 10.1591 14.5189 10.2513 14.635 10.3675L17.135 12.8675C17.3693 13.1019 17.501 13.4198 17.501 13.7512C17.501 14.0827 17.3693 14.4006 17.135 14.635ZM15.365 27.865C15.4812 27.7488 15.6192 27.6566 15.771 27.5937C15.9229 27.5308 16.0856 27.4984 16.25 27.4984C16.4143 27.4984 16.5771 27.5308 16.7289 27.5937C16.8808 27.6566 17.0188 27.7488 17.135 27.865C17.2512 27.9812 17.3434 28.1192 17.4063 28.271C17.4692 28.4229 17.5016 28.5856 17.5016 28.75C17.5016 28.9144 17.4692 29.0771 17.4063 29.229C17.3434 29.3808 17.2512 29.5188 17.135 29.635L14.635 32.135C14.4006 32.3697 14.0826 32.5017 13.7509 32.5019C13.4192 32.5022 13.101 32.3706 12.8662 32.1362C12.6315 31.9019 12.4995 31.5838 12.4993 31.2521C12.4991 30.9204 12.6306 30.6022 12.865 30.3675L15.365 27.8675V27.865ZM32.865 14.635C32.9811 14.7514 33.119 14.8438 33.2709 14.9068C33.4228 14.9698 33.5856 15.0022 33.75 15.0022C33.9144 15.0022 34.0772 14.9698 34.2291 14.9068C34.3809 14.8438 34.5189 14.7514 34.635 14.635L37.135 12.135C37.3697 11.9003 37.5016 11.5819 37.5016 11.25C37.5016 10.9181 37.3697 10.5997 37.135 10.365C36.9003 10.1303 36.5819 9.99842 36.25 9.99842C35.918 9.99842 35.5997 10.1303 35.365 10.365L32.865 12.865C32.7486 12.9811 32.6562 13.1191 32.5932 13.2709C32.5302 13.4228 32.4978 13.5856 32.4978 13.75C32.4978 13.9144 32.5302 14.0772 32.5932 14.2291C32.6562 14.3809 32.7486 14.5189 32.865 14.635ZM34.635 27.8675C34.4006 27.6328 34.0826 27.5008 33.7509 27.5006C33.4192 27.5003 33.101 27.6319 32.8662 27.8662C32.6315 28.1006 32.4995 28.4187 32.4993 28.7504C32.4991 29.0821 32.6306 29.4003 32.865 29.635L35.365 32.135C35.5994 32.3697 35.9174 32.5017 36.2491 32.5019C36.5808 32.5022 36.899 32.3706 37.1337 32.1362C37.3685 31.9019 37.5005 31.5838 37.5007 31.2521C37.5009 30.9204 37.3694 30.6022 37.135 30.3675L34.635 27.8675Z" fill="white"/>
</svg>
