<svg width="60" height="60" viewBox="0 0 60 60" fill="none" xmlns="http://www.w3.org/2000/svg">
<path d="M25 32.5H25.025M40 32.5H40.025M32.5 36.25H32.525M25 40H25.025M40 40H40.025M32.5 43.75H32.525M20 17.59C21.8708 17.8575 23.6037 18.7262 24.9375 20.065M15 34.155C13.0357 33.2217 11.4892 31.5904 10.6622 29.579C9.83522 27.5677 9.78687 25.3204 10.5266 23.2753C11.2664 21.2302 12.7412 19.5339 14.6636 18.517C16.586 17.5002 18.8182 17.2356 20.925 17.775C21.9904 15.1748 23.9004 13.0093 26.3472 11.6275C28.7939 10.2458 31.6347 9.72835 34.4115 10.1587C37.1883 10.5891 39.7393 11.9421 41.653 13.9997C43.5667 16.0572 44.7317 18.6993 44.96 21.5C45.9945 21.7867 46.9475 22.3116 47.7428 23.0327C48.5381 23.7537 49.1535 24.651 49.5399 25.6525C49.9262 26.6541 50.0727 27.7322 49.9677 28.8006C49.8627 29.8689 49.509 30.8978 48.935 31.805" stroke="white" stroke-width="2.16667" stroke-linecap="round" stroke-linejoin="round"/>
</svg>
