<svg width="28" height="28" viewBox="0 0 28 28" fill="none" xmlns="http://www.w3.org/2000/svg">
<path d="M15.1375 25.6083V23.275C15.9542 23.1583 16.7463 22.9347 17.514 22.6042C18.2824 22.2736 19.0069 21.8556 19.6875 21.35L21.3792 23.0417C20.4653 23.7611 19.4833 24.3398 18.4333 24.7777C17.3833 25.2148 16.2847 25.4917 15.1375 25.6083ZM23.0125 21.35L21.3792 19.7167C21.8847 19.075 22.293 18.3699 22.6042 17.6015C22.9153 16.8338 23.1292 16.0222 23.2458 15.1667H25.6375C25.4819 16.3722 25.1856 17.4949 24.7485 18.5348C24.3106 19.5755 23.7319 20.5139 23.0125 21.35ZM23.2458 12.8333C23.1292 11.9583 22.9153 11.1366 22.6042 10.3682C22.293 9.6005 21.8847 8.90556 21.3792 8.28333L23.0125 6.65C23.7514 7.50556 24.3495 8.45833 24.8068 9.50833C25.2634 10.5583 25.5403 11.6667 25.6375 12.8333H23.2458ZM12.8042 25.6083C9.82915 25.2583 7.34532 23.9801 5.35265 21.7735C3.35921 19.5662 2.36249 16.975 2.36249 14C2.36249 10.9861 3.35921 8.38056 5.35265 6.18333C7.34532 3.98611 9.82915 2.72222 12.8042 2.39167V4.725C10.4708 5.05556 8.5361 6.09583 6.99999 7.84583C5.46388 9.59583 4.69582 11.6472 4.69582 14C4.69582 16.3333 5.46388 18.375 6.99999 20.125C8.5361 21.875 10.4708 22.925 12.8042 23.275V25.6083ZM19.7458 6.65C19.0458 6.125 18.3069 5.69722 17.5292 5.36667C16.7514 5.03611 15.9542 4.82222 15.1375 4.725V2.39167C16.2847 2.48889 17.3833 2.75606 18.4333 3.19317C19.4833 3.63106 20.4653 4.21944 21.3792 4.95833L19.7458 6.65ZM14 19.8333C12.425 18.4917 11.2537 17.2519 10.486 16.114C9.71754 14.9769 9.33332 13.9222 9.33332 12.95C9.33332 11.4917 9.80504 10.3301 10.7485 9.46517C11.6912 8.5995 12.775 8.16667 14 8.16667C15.225 8.16667 16.3092 8.5995 17.2527 9.46517C18.1953 10.3301 18.6667 11.4917 18.6667 12.95C18.6667 13.9222 18.2824 14.9769 17.514 16.114C16.7463 17.2519 15.575 18.4917 14 19.8333ZM14 14C14.35 14 14.6467 13.8787 14.8902 13.636C15.1328 13.3926 15.2542 13.0958 15.2542 12.7458C15.2542 12.4153 15.1328 12.1236 14.8902 11.8708C14.6467 11.6181 14.35 11.4917 14 11.4917C13.65 11.4917 13.3537 11.6181 13.111 11.8708C12.8675 12.1236 12.7458 12.4153 12.7458 12.7458C12.7458 13.0958 12.8675 13.3926 13.111 13.636C13.3537 13.8787 13.65 14 14 14Z" fill="#1D2540"/>
</svg>
